<svg width="35" height="35" viewBox="0 0 35 35" fill="none" xmlns="http://www.w3.org/2000/svg">
<g id="Group 48096094">
<g id="Group 48095969">
<path id="Vector" d="M33.8825 17.1276C33.7358 17.1277 33.5905 17.0988 33.4549 17.0427C33.3194 16.9866 33.1962 16.9044 33.0924 16.8007L19.2529 2.96001C18.7869 2.49668 18.157 2.23579 17.4999 2.23394C17.1742 2.23304 16.8516 2.29674 16.5507 2.42137C16.2498 2.546 15.9767 2.72908 15.747 2.96001L1.90744 16.8007C1.80368 16.9044 1.68051 16.9867 1.54494 17.0429C1.40938 17.0991 1.26408 17.128 1.11735 17.128C0.970619 17.128 0.825323 17.0991 0.68976 17.0429C0.554196 16.9867 0.431021 16.9044 0.327265 16.8007C0.223509 16.6969 0.141205 16.5737 0.0850533 16.4382C0.0289011 16.3026 0 16.1573 0 16.0106C0 15.8638 0.0289011 15.7185 0.0850533 15.583C0.141205 15.4474 0.223509 15.3242 0.327265 15.2205L14.1676 1.38054C14.6051 0.942857 15.1247 0.595667 15.6964 0.358793C16.2682 0.121919 16.881 0 17.4999 0C18.1188 0 18.7317 0.121919 19.3034 0.358793C19.8752 0.595667 20.3947 0.942857 20.8323 1.38054L34.6726 15.2205C34.8289 15.3767 34.9354 15.5758 34.9785 15.7925C35.0217 16.0093 34.9995 16.2339 34.9149 16.4381C34.8304 16.6423 34.6871 16.8168 34.5033 16.9395C34.3195 17.0622 34.1035 17.1277 33.8825 17.1276Z" fill="#FF3D00"/>
<path id="Vector_2" d="M17.4996 5.58496L5.58496 17.4999V33.8829H13.0316V26.4361C13.0316 25.2511 13.5023 24.1146 14.3402 23.2767C15.1781 22.4387 16.3146 21.968 17.4996 21.968C18.6845 21.968 19.821 22.4387 20.6589 23.2767C21.4968 24.1146 21.9675 25.2511 21.9675 26.4361V33.8829H29.4142V17.4999L17.4996 5.58496Z" fill="#D83E3E"/>
<path id="Vector_3" d="M29.414 35.0003H21.9673C21.6711 35.0003 21.387 34.8826 21.1775 34.6731C20.968 34.4636 20.8503 34.1795 20.8503 33.8833V26.4364C20.8503 25.5477 20.4973 24.6953 19.8689 24.0669C19.2404 23.4384 18.3881 23.0854 17.4994 23.0854C16.6106 23.0854 15.7583 23.4384 15.1299 24.0669C14.5014 24.6953 14.1484 25.5477 14.1484 26.4364V33.8833C14.1484 34.1795 14.0307 34.4636 13.8212 34.6731C13.6117 34.8826 13.3276 35.0003 13.0314 35.0003H5.58477C5.28852 35.0003 5.00441 34.8826 4.79493 34.6731C4.58546 34.4636 4.46777 34.1795 4.46777 33.8833V17.5002C4.46771 17.3535 4.49654 17.2082 4.55263 17.0727C4.60873 16.9371 4.69097 16.8139 4.79468 16.7101L16.7093 4.7952C16.813 4.69139 16.9362 4.60905 17.0717 4.55287C17.2073 4.49669 17.3526 4.46777 17.4994 4.46777C17.6461 4.46777 17.7914 4.49669 17.927 4.55287C18.0626 4.60905 18.1857 4.69139 18.2895 4.7952L30.2041 16.7101C30.3078 16.8139 30.39 16.9371 30.4461 17.0727C30.5022 17.2082 30.531 17.3535 30.531 17.5002V33.8833C30.531 34.1795 30.4133 34.4636 30.2038 34.6731C29.9943 34.8826 29.7102 35.0003 29.414 35.0003ZM23.0843 32.7662H28.297V17.9627L17.4994 7.16478L6.70176 17.9627V32.7662H11.9144V26.4364C11.9144 24.9552 12.5028 23.5346 13.5502 22.4871C14.5976 21.4397 16.0181 20.8513 17.4994 20.8513C18.9806 20.8513 20.4012 21.4397 21.4485 22.4871C22.4959 23.5346 23.0843 24.9552 23.0843 26.4364V32.7662Z" fill="#D83E3E"/>
<path id="Vector_4" d="M21.968 35.0005C21.6717 35.0005 21.3876 34.8829 21.1781 34.6734C20.9687 34.4639 20.851 34.1798 20.851 33.8835V26.4367C20.851 25.5479 20.4979 24.6956 19.8695 24.0671C19.2411 23.4387 18.3887 23.0856 17.5 23.0856C16.6113 23.0856 15.7589 23.4387 15.1305 24.0671C14.5021 24.6956 14.149 25.5479 14.149 26.4367V33.8835C14.149 34.1798 14.0313 34.4639 13.8219 34.6734C13.6124 34.8829 13.3283 35.0005 13.032 35.0005C12.7358 35.0005 12.4517 34.8829 12.2422 34.6734C12.0327 34.4639 11.915 34.1798 11.915 33.8835V26.4367C11.915 24.9554 12.5035 23.5348 13.5508 22.4874C14.5982 21.44 16.0188 20.8516 17.5 20.8516C18.9812 20.8516 20.4018 21.44 21.4492 22.4874C22.4966 23.5348 23.085 24.9554 23.085 26.4367V33.8835C23.085 34.1798 22.9673 34.4639 22.7578 34.6734C22.5483 34.8829 22.2642 35.0005 21.968 35.0005Z" fill="#FF3D00"/>
</g>
</g>
</svg>
