<svg width="127" height="142" viewBox="0 0 127 142" fill="none" xmlns="http://www.w3.org/2000/svg">
<path id="Vector" d="M124.594 51.4039C126.203 48.2962 126.552 44.6569 125.566 41.2838C124.579 37.9108 122.336 35.079 119.33 33.4094L62.8818 2.14255C59.8701 0.484717 56.3447 0.125576 53.077 1.14371C49.8093 2.16185 47.0654 4.47435 45.4458 7.57522L2.40594 90.3461C1.60552 91.884 1.10673 93.5698 0.938117 95.3069C0.769503 97.0439 0.934372 98.7983 1.42328 100.47C1.91219 102.141 2.71555 103.696 3.78742 105.047C4.85929 106.397 6.17864 107.517 7.67001 108.341L64.1182 139.583C67.1313 141.231 70.6528 141.585 73.9176 140.569C77.1823 139.553 79.9266 137.248 81.5543 134.155L124.594 51.4039ZM76.8522 74.7006C69.5433 80.4275 62.69 86.7488 56.3579 93.6037C55.6246 94.4811 54.6853 95.1495 53.6299 95.5448C52.5746 95.9401 51.4385 96.0491 50.3306 95.8614C49.2227 95.6737 48.1801 95.1955 47.3026 94.4727C46.4252 93.7498 45.7423 92.8066 45.3193 91.7332C43.549 87.5669 37.5497 75.6817 35.3345 71.3172C35.0621 70.7803 34.9952 70.1573 35.147 69.5718C35.2988 68.9863 35.6582 68.4811 36.154 68.1562C42.1721 64.2315 50.2977 74.9809 52.7986 78.6301C58.0171 73.3739 63.5261 68.434 69.298 63.8352C84.3502 52.0419 95.0563 51.9065 100.704 53.2405C101.154 53.3466 101.563 53.5871 101.88 53.9321C102.198 54.277 102.41 54.711 102.489 55.1796C102.569 55.6483 102.512 56.1307 102.327 56.5665C102.142 57.0022 101.837 57.3719 101.449 57.6292C94.9954 61.9212 82.1397 70.5584 76.8522 74.7006Z" fill="#FF3D00"/>
</svg>
